<svg width="100" height="28" viewBox="0 0 100 28" fill="none" xmlns="http://www.w3.org/2000/svg">
<path d="M86.8242 27.0001V16.9287H89.6226L97.2366 25.2813V16.9287H99.1258V27.0001H96.3416L88.7277 18.6475V27.0001H86.8242Z" fill="#222220"/>
<path d="M79.0262 27.2836C74.9351 27.2836 72.293 25.1955 72.293 21.9851C72.293 18.7464 74.9209 16.6582 78.9552 16.6582C82.8047 16.6582 84.9923 18.4338 85.2338 20.5788H83.0888C82.9184 19.6697 81.711 18.377 78.9694 18.377C75.8584 18.377 74.3669 20.11 74.3669 21.9851C74.3669 23.9312 75.9011 25.5648 79.1398 25.5648C80.9297 25.5648 82.3076 25.2807 83.586 24.5989V23.4909H78.7137V21.772H85.2338V25.65C83.586 26.7296 81.5689 27.2836 79.0262 27.2836Z" fill="#222220"/>
<path d="M69.0039 27.0001V16.9287H70.9074V27.0001H69.0039Z" fill="#222220"/>
<path d="M61.8754 27.2841C57.7844 27.2841 55.6394 26.3749 55.5684 23.6334H57.5429C57.5429 25.2385 58.8213 25.8636 61.8754 25.8636C64.5318 25.8636 65.6398 25.4232 65.6398 24.2158C65.6398 23.0225 64.8159 22.8521 61.776 22.6532L61.2078 22.6106C57.2588 22.3691 55.8667 21.5736 55.8667 19.5281C55.8667 17.5252 57.8128 16.6729 61.3498 16.6729C65.1852 16.6729 67.1171 17.8093 67.1739 20.1531H65.2136C65.2136 18.5763 63.8073 18.0934 61.1936 18.0934C58.7503 18.0934 57.827 18.4911 57.827 19.5281C57.827 20.7071 58.6793 20.9628 61.4635 21.1617L62.0601 21.2043C65.6256 21.46 67.6001 21.7441 67.6001 24.1589C67.6001 26.5454 65.4409 27.2841 61.8754 27.2841Z" fill="#222220"/>
<path d="M44.6094 27.0001V16.9287H54.5245V18.3918H46.5129V21.2755H54.2404V22.6392H46.5129V25.5228H54.5245V27.0001H44.6094Z" fill="#222220"/>
<path d="M31.1914 27.0001V16.9287H37.7542C40.8083 16.9287 43.0669 19.0595 43.0669 21.9573C43.0669 24.8552 40.8083 27.0001 37.7542 27.0001H31.1914ZM33.0949 25.3807H37.0155C39.5014 25.3807 41.1066 24.0313 41.1066 21.9573C41.1066 19.8976 39.5014 18.5481 37.0155 18.5481H33.0949V25.3807Z" fill="#222220"/>
<path d="M85.9983 7.10169C83.4482 7.10169 81.9219 5.94765 81.9219 4.05837C81.9219 2.1877 83.4482 1.04297 85.9983 1.04297C88.4366 1.04297 89.8792 2.1877 89.8792 4.05837C89.8792 5.94765 88.4366 7.10169 85.9983 7.10169ZM82.6292 4.05837C82.6292 5.55676 83.8856 6.45021 85.9983 6.45021C87.9992 6.45021 89.1812 5.55676 89.1812 4.05837C89.1812 2.57859 87.9992 1.69444 85.9983 1.69444C83.8856 1.69444 82.6292 2.57859 82.6292 4.05837ZM84.202 5.65914V2.40176H86.6218C87.5246 2.40176 87.9899 2.79264 87.9899 3.46273C87.9899 4.03976 87.6456 4.35619 87.2547 4.47718L87.9155 5.65914H87.0592L86.5101 4.61678H84.9094V5.65914H84.202ZM84.9094 4.03976H86.538C87.0499 4.03976 87.264 3.84431 87.264 3.49996C87.264 3.16492 87.0499 2.98809 86.538 2.98809H84.9094V4.03976Z" fill="#222220"/>
<path d="M68.8926 11.0001V0.928711H76.606C79.2765 0.928711 80.5266 1.93727 80.5266 3.82655C80.5266 5.16183 79.8021 6.07096 78.4242 6.42609C79.6458 6.4687 80.4555 7.16475 80.4555 8.35798V11.0001H78.5663V8.62788C78.5663 7.71875 78.1117 7.33521 77.2026 7.33521H70.7961V11.0001H68.8926ZM70.7961 5.77265H76.2082C77.7424 5.77265 78.5663 5.30388 78.5663 4.08224C78.5663 2.87481 77.7424 2.47707 76.2082 2.47707H70.7961V5.77265Z" fill="#222220"/>
<path d="M51.8672 11.0001V0.928711H54.7366L59.4101 8.94039L64.0694 0.928711H66.9246V11.0001H65.0353V2.74696L60.2908 11.0001H58.5152L53.7707 2.74696V11.0001H51.8672Z" fill="#222220"/>
<path d="M43.7897 11.2841C39.7128 11.2841 37.1133 9.18171 37.1133 5.95715C37.1133 2.7468 39.7128 0.672852 43.7897 0.672852C47.8523 0.672852 50.4519 2.761 50.4519 5.95715C50.4519 9.18171 47.8523 11.2841 43.7897 11.2841ZM39.0878 5.95715C39.0878 8.15894 40.8634 9.66468 43.7897 9.66468C46.7017 9.66468 48.4916 8.14474 48.4916 5.95715C48.4916 3.78377 46.7159 2.27803 43.7897 2.27803C40.8634 2.27803 39.0878 3.78377 39.0878 5.95715Z" fill="#222220"/>
<path d="M29.1784 11.2841C25.1015 11.2841 22.502 9.18171 22.502 5.95715C22.502 2.7468 25.1015 0.672852 29.1784 0.672852C33.241 0.672852 35.8405 2.761 35.8405 5.95715C35.8405 9.18171 33.241 11.2841 29.1784 11.2841ZM24.4765 5.95715C24.4765 8.15894 26.2521 9.66468 29.1784 9.66468C32.0904 9.66468 33.8802 8.14474 33.8802 5.95715C33.8802 3.78377 32.1046 2.27803 29.1784 2.27803C26.2521 2.27803 24.4765 3.78377 24.4765 5.95715Z" fill="#222220"/>
<path d="M12.791 11.0001V0.928711H14.6945V9.38075H22.2658V11.0001H12.791Z" fill="#222220"/>
<path d="M0.123047 11.0001V0.928711H7.69437C10.095 0.928711 10.99 1.99409 10.99 3.44301C10.99 4.55101 10.3649 5.37491 9.28534 5.77265C10.5496 6.07096 11.5724 6.78121 11.5724 8.25855C11.5724 9.92054 10.507 11.0001 8.3336 11.0001H0.123047ZM2.02653 9.57962H7.73698C8.91601 9.57962 9.59785 9.12506 9.59785 8.04547C9.59785 6.88065 8.68873 6.53973 7.73698 6.53973H2.02653V9.57962ZM2.02653 5.31809H7.16878C8.19155 5.31809 9.10067 4.96296 9.10067 3.81235C9.10067 2.78958 8.41883 2.34922 7.16878 2.34922H2.02653V5.31809Z" fill="#222220"/>
</svg>
